<svg width="1138" height="450" viewBox="0 0 1138 450" fill="none" xmlns="http://www.w3.org/2000/svg">
<mask id="mask0_6_502" style="mask-type:alpha" maskUnits="userSpaceOnUse" x="0" y="0" width="1138" height="450">
<rect width="1138" height="450" rx="20" fill="#0099FF"/>
</mask>
<g mask="url(#mask0_6_502)">
<rect width="1138" height="450" rx="20" fill="#0099FF"/>
<g style="mix-blend-mode:overlay">
<path d="M-32.3864 -47H-61V-18.3684M-32.3864 -47V-18.3684M-32.3864 -47H-3.77273M-32.3864 -18.3684H-61M-32.3864 -18.3684V10.2632M-32.3864 -18.3684H-3.77273M-61 -18.3684V10.2632M-32.3864 10.2632H-61M-32.3864 10.2632V38.8947M-32.3864 10.2632H-3.77273M-61 10.2632V38.8947M-32.3864 38.8947H-61M-32.3864 38.8947V67.5263M-32.3864 38.8947H-3.77273M-61 38.8947V67.5263M-32.3864 67.5263H-61M-32.3864 67.5263V96.1579M-32.3864 67.5263H-3.77273M-61 67.5263V96.1579M-32.3864 96.1579H-61M-32.3864 96.1579V124.789M-32.3864 96.1579H-3.77273M-61 96.1579V124.789M-32.3864 124.789H-61M-32.3864 124.789V153.421M-32.3864 124.789H-3.77273M-61 124.789V153.421M-32.3864 153.421H-61M-32.3864 153.421V182.053M-32.3864 153.421H-3.77273M-61 153.421V182.053M-32.3864 182.053H-61M-32.3864 182.053V210.684M-32.3864 182.053H-3.77273M-61 182.053V210.684M-32.3864 210.684H-61M-32.3864 210.684V239.316M-32.3864 210.684H-3.77273M-61 210.684V239.316M-32.3864 239.316H-61M-32.3864 239.316V267.947M-32.3864 239.316H-3.77273M-61 239.316V267.947M-32.3864 267.947H-61M-32.3864 267.947V296.579M-32.3864 267.947H-3.77273M-61 267.947V296.579M-32.3864 296.579H-61M-32.3864 296.579V325.211M-32.3864 296.579H-3.77273M-61 296.579V325.211M-32.3864 325.211H-61M-32.3864 325.211V353.842M-32.3864 325.211H-3.77273M-61 325.211V353.842M-32.3864 353.842H-61M-32.3864 353.842V382.474M-32.3864 353.842H-3.77273M-61 353.842V382.474M-32.3864 382.474H-61M-32.3864 382.474V411.105M-32.3864 382.474H-3.77273M-61 382.474V411.105M-32.3864 411.105H-61M-32.3864 411.105V439.737M-32.3864 411.105H-3.77273M-61 411.105V439.737M-32.3864 439.737H-61M-32.3864 439.737V468.368M-32.3864 439.737H-3.77273M-61 439.737V468.368M-32.3864 468.368H-61M-32.3864 468.368V497M-32.3864 468.368H-3.77273M-61 468.368V497H-32.3864M-32.3864 497H-3.77273M-3.77273 -47V-18.3684M-3.77273 -47H24.8409M-3.77273 -18.3684V10.2632M-3.77273 -18.3684H24.8409M-3.77273 10.2632V38.8947M-3.77273 10.2632H24.8409M-3.77273 38.8947V67.5263M-3.77273 38.8947H24.8409M-3.77273 67.5263V96.1579M-3.77273 67.5263H24.8409M-3.77273 96.1579V124.789M-3.77273 96.1579H24.8409M-3.77273 124.789V153.421M-3.77273 124.789H24.8409M-3.77273 153.421V182.053M-3.77273 153.421H24.8409M-3.77273 182.053V210.684M-3.77273 182.053H24.8409M-3.77273 210.684V239.316M-3.77273 210.684H24.8409M-3.77273 239.316V267.947M-3.77273 239.316H24.8409M-3.77273 267.947V296.579M-3.77273 267.947H24.8409M-3.77273 296.579V325.211M-3.77273 296.579H24.8409M-3.77273 325.211V353.842M-3.77273 325.211H24.8409M-3.77273 353.842V382.474M-3.77273 353.842H24.8409M-3.77273 382.474V411.105M-3.77273 382.474H24.8409M-3.77273 411.105V439.737M-3.77273 411.105H24.8409M-3.77273 439.737V468.368M-3.77273 439.737H24.8409M-3.77273 468.368V497M-3.77273 468.368H24.8409M-3.77273 497H24.8409M24.8409 -47V-18.3684M24.8409 -47H53.4545M24.8409 -18.3684V10.2632M24.8409 -18.3684H53.4545M24.8409 10.2632V38.8947M24.8409 10.2632H53.4545M24.8409 38.8947V67.5263M24.8409 38.8947H53.4545M24.8409 67.5263V96.1579M24.8409 67.5263H53.4545M24.8409 96.1579V124.789M24.8409 96.1579H53.4545M24.8409 124.789V153.421M24.8409 124.789H53.4545M24.8409 153.421V182.053M24.8409 153.421H53.4545M24.8409 182.053V210.684M24.8409 182.053H53.4545M24.8409 210.684V239.316M24.8409 210.684H53.4545M24.8409 239.316V267.947M24.8409 239.316H53.4545M24.8409 267.947V296.579M24.8409 267.947H53.4545M24.8409 296.579V325.211M24.8409 296.579H53.4545M24.8409 325.211V353.842M24.8409 325.211H53.4545M24.8409 353.842V382.474M24.8409 353.842H53.4545M24.8409 382.474V411.105M24.8409 382.474H53.4545M24.8409 411.105V439.737M24.8409 411.105H53.4545M24.8409 439.737V468.368M24.8409 439.737H53.4545M24.8409 468.368V497M24.8409 468.368H53.4545M24.8409 497H53.4545M53.4545 -47V-18.3684M53.4545 -47H82.0682M53.4545 -18.3684V10.2632M53.4545 -18.3684H82.0682M53.4545 10.2632V38.8947M53.4545 10.2632H82.0682M53.4545 38.8947V67.5263M53.4545 38.8947H82.0682M53.4545 67.5263V96.1579M53.4545 67.5263H82.0682M53.4545 96.1579V124.789M53.4545 96.1579H82.0682M53.4545 124.789V153.421M53.4545 124.789H82.0682M53.4545 153.421V182.053M53.4545 153.421H82.0682M53.4545 182.053V210.684M53.4545 182.053H82.0682M53.4545 210.684V239.316M53.4545 210.684H82.0682M53.4545 239.316V267.947M53.4545 239.316H82.0682M53.4545 267.947V296.579M53.4545 267.947H82.0682M53.4545 296.579V325.211M53.4545 296.579H82.0682M53.4545 325.211V353.842M53.4545 325.211H82.0682M53.4545 353.842V382.474M53.4545 353.842H82.0682M53.4545 382.474V411.105M53.4545 382.474H82.0682M53.4545 411.105V439.737M53.4545 411.105H82.0682M53.4545 439.737V468.368M53.4545 439.737H82.0682M53.4545 468.368V497M53.4545 468.368H82.0682M53.4545 497H82.0682M82.0682 -47V-18.3684M82.0682 -47H110.682M82.0682 -18.3684V10.2632M82.0682 -18.3684H110.682M82.0682 10.2632V38.8947M82.0682 10.2632H110.682M82.0682 38.8947V67.5263M82.0682 38.8947H110.682M82.0682 67.5263V96.1579M82.0682 67.5263H110.682M82.0682 96.1579V124.789M82.0682 96.1579H110.682M82.0682 124.789V153.421M82.0682 124.789H110.682M82.0682 153.421V182.053M82.0682 153.421H110.682M82.0682 182.053V210.684M82.0682 182.053H110.682M82.0682 210.684V239.316M82.0682 210.684H110.682M82.0682 239.316V267.947M82.0682 239.316H110.682M82.0682 267.947V296.579M82.0682 267.947H110.682M82.0682 296.579V325.211M82.0682 296.579H110.682M82.0682 325.211V353.842M82.0682 325.211H110.682M82.0682 353.842V382.474M82.0682 353.842H110.682M82.0682 382.474V411.105M82.0682 382.474H110.682M82.0682 411.105V439.737M82.0682 411.105H110.682M82.0682 439.737V468.368M82.0682 439.737H110.682M82.0682 468.368V497M82.0682 468.368H110.682M82.0682 497H110.682M110.682 -47V-18.3684M110.682 -47H139.295M110.682 -18.3684V10.2632M110.682 -18.3684H139.295M110.682 10.2632V38.8947M110.682 10.2632H139.295M110.682 38.8947V67.5263M110.682 38.8947H139.295M110.682 67.5263V96.1579M110.682 67.5263H139.295M110.682 96.1579V124.789M110.682 96.1579H139.295M110.682 124.789V153.421M110.682 124.789H139.295M110.682 153.421V182.053M110.682 153.421H139.295M110.682 182.053V210.684M110.682 182.053H139.295M110.682 210.684V239.316M110.682 210.684H139.295M110.682 239.316V267.947M110.682 239.316H139.295M110.682 267.947V296.579M110.682 267.947H139.295M110.682 296.579V325.211M110.682 296.579H139.295M110.682 325.211V353.842M110.682 325.211H139.295M110.682 353.842V382.474M110.682 353.842H139.295M110.682 382.474V411.105M110.682 382.474H139.295M110.682 411.105V439.737M110.682 411.105H139.295M110.682 439.737V468.368M110.682 439.737H139.295M110.682 468.368V497M110.682 468.368H139.295M110.682 497H139.295M139.295 -47V-18.3684M139.295 -47H167.909M139.295 -18.3684V10.2632M139.295 -18.3684H167.909M139.295 10.2632V38.8947M139.295 10.2632H167.909M139.295 38.8947V67.5263M139.295 38.8947H167.909M139.295 67.5263V96.1579M139.295 67.5263H167.909M139.295 96.1579V124.789M139.295 96.1579H167.909M139.295 124.789V153.421M139.295 124.789H167.909M139.295 153.421V182.053M139.295 153.421H167.909M139.295 182.053V210.684M139.295 182.053H167.909M139.295 210.684V239.316M139.295 210.684H167.909M139.295 239.316V267.947M139.295 239.316H167.909M139.295 267.947V296.579M139.295 267.947H167.909M139.295 296.579V325.211M139.295 296.579H167.909M139.295 325.211V353.842M139.295 325.211H167.909M139.295 353.842V382.474M139.295 353.842H167.909M139.295 382.474V411.105M139.295 382.474H167.909M139.295 411.105V439.737M139.295 411.105H167.909M139.295 439.737V468.368M139.295 439.737H167.909M139.295 468.368V497M139.295 468.368H167.909M139.295 497H167.909M167.909 -47V-18.3684M167.909 -47H196.523M167.909 -18.3684V10.2632M167.909 -18.3684H196.523M167.909 10.2632V38.8947M167.909 10.2632H196.523M167.909 38.8947V67.5263M167.909 38.8947H196.523M167.909 67.5263V96.1579M167.909 67.5263H196.523M167.909 96.1579V124.789M167.909 96.1579H196.523M167.909 124.789V153.421M167.909 124.789H196.523M167.909 153.421V182.053M167.909 153.421H196.523M167.909 182.053V210.684M167.909 182.053H196.523M167.909 210.684V239.316M167.909 210.684H196.523M167.909 239.316V267.947M167.909 239.316H196.523M167.909 267.947V296.579M167.909 267.947H196.523M167.909 296.579V325.211M167.909 296.579H196.523M167.909 325.211V353.842M167.909 325.211H196.523M167.909 353.842V382.474M167.909 353.842H196.523M167.909 382.474V411.105M167.909 382.474H196.523M167.909 411.105V439.737M167.909 411.105H196.523M167.909 439.737V468.368M167.909 439.737H196.523M167.909 468.368V497M167.909 468.368H196.523M167.909 497H196.523M196.523 -47V-18.3684M196.523 -47H225.136M196.523 -18.3684V10.2632M196.523 -18.3684H225.136M196.523 10.2632V38.8947M196.523 10.2632H225.136M196.523 38.8947V67.5263M196.523 38.8947H225.136M196.523 67.5263V96.1579M196.523 67.5263H225.136M196.523 96.1579V124.789M196.523 96.1579H225.136M196.523 124.789V153.421M196.523 124.789H225.136M196.523 153.421V182.053M196.523 153.421H225.136M196.523 182.053V210.684M196.523 182.053H225.136M196.523 210.684V239.316M196.523 210.684H225.136M196.523 239.316V267.947M196.523 239.316H225.136M196.523 267.947V296.579M196.523 267.947H225.136M196.523 296.579V325.211M196.523 296.579H225.136M196.523 325.211V353.842M196.523 325.211H225.136M196.523 353.842V382.474M196.523 353.842H225.136M196.523 382.474V411.105M196.523 382.474H225.136M196.523 411.105V439.737M196.523 411.105H225.136M196.523 439.737V468.368M196.523 439.737H225.136M196.523 468.368V497M196.523 468.368H225.136M196.523 497H225.136M225.136 -47V-18.3684M225.136 -47H253.75M225.136 -18.3684V10.2632M225.136 -18.3684H253.75M225.136 10.2632V38.8947M225.136 10.2632H253.75M225.136 38.8947V67.5263M225.136 38.8947H253.75M225.136 67.5263V96.1579M225.136 67.5263H253.75M225.136 96.1579V124.789M225.136 96.1579H253.75M225.136 124.789V153.421M225.136 124.789H253.75M225.136 153.421V182.053M225.136 153.421H253.75M225.136 182.053V210.684M225.136 182.053H253.75M225.136 210.684V239.316M225.136 210.684H253.75M225.136 239.316V267.947M225.136 239.316H253.75M225.136 267.947V296.579M225.136 267.947H253.75M225.136 296.579V325.211M225.136 296.579H253.75M225.136 325.211V353.842M225.136 325.211H253.75M225.136 353.842V382.474M225.136 353.842H253.75M225.136 382.474V411.105M225.136 382.474H253.75M225.136 411.105V439.737M225.136 411.105H253.75M225.136 439.737V468.368M225.136 439.737H253.75M225.136 468.368V497M225.136 468.368H253.75M225.136 497H253.75M253.75 -47V-18.3684M253.75 -47H282.364M253.75 -18.3684V10.2632M253.75 -18.3684H282.364M253.75 10.2632V38.8947M253.75 10.2632H282.364M253.75 38.8947V67.5263M253.75 38.8947H282.364M253.75 67.5263V96.1579M253.75 67.5263H282.364M253.75 96.1579V124.789M253.75 96.1579H282.364M253.75 124.789V153.421M253.75 124.789H282.364M253.75 153.421V182.053M253.75 153.421H282.364M253.75 182.053V210.684M253.75 182.053H282.364M253.75 210.684V239.316M253.75 210.684H282.364M253.75 239.316V267.947M253.75 239.316H282.364M253.75 267.947V296.579M253.75 267.947H282.364M253.75 296.579V325.211M253.75 296.579H282.364M253.75 325.211V353.842M253.75 325.211H282.364M253.75 353.842V382.474M253.75 353.842H282.364M253.75 382.474V411.105M253.75 382.474H282.364M253.75 411.105V439.737M253.75 411.105H282.364M253.75 439.737V468.368M253.75 439.737H282.364M253.75 468.368V497M253.75 468.368H282.364M253.75 497H282.364M282.364 -47V-18.3684M282.364 -47H310.977M282.364 -18.3684V10.2632M282.364 -18.3684H310.977M282.364 10.2632V38.8947M282.364 10.2632H310.977M282.364 38.8947V67.5263M282.364 38.8947H310.977M282.364 67.5263V96.1579M282.364 67.5263H310.977M282.364 96.1579V124.789M282.364 96.1579H310.977M282.364 124.789V153.421M282.364 124.789H310.977M282.364 153.421V182.053M282.364 153.421H310.977M282.364 182.053V210.684M282.364 182.053H310.977M282.364 210.684V239.316M282.364 210.684H310.977M282.364 239.316V267.947M282.364 239.316H310.977M282.364 267.947V296.579M282.364 267.947H310.977M282.364 296.579V325.211M282.364 296.579H310.977M282.364 325.211V353.842M282.364 325.211H310.977M282.364 353.842V382.474M282.364 353.842H310.977M282.364 382.474V411.105M282.364 382.474H310.977M282.364 411.105V439.737M282.364 411.105H310.977M282.364 439.737V468.368M282.364 439.737H310.977M282.364 468.368V497M282.364 468.368H310.977M282.364 497H310.977M310.977 -47V-18.3684M310.977 -47H339.591M310.977 -18.3684V10.2632M310.977 -18.3684H339.591M310.977 10.2632V38.8947M310.977 10.2632H339.591M310.977 38.8947V67.5263M310.977 38.8947H339.591M310.977 67.5263V96.1579M310.977 67.5263H339.591M310.977 96.1579V124.789M310.977 96.1579H339.591M310.977 124.789V153.421M310.977 124.789H339.591M310.977 153.421V182.053M310.977 153.421H339.591M310.977 182.053V210.684M310.977 182.053H339.591M310.977 210.684V239.316M310.977 210.684H339.591M310.977 239.316V267.947M310.977 239.316H339.591M310.977 267.947V296.579M310.977 267.947H339.591M310.977 296.579V325.211M310.977 296.579H339.591M310.977 325.211V353.842M310.977 325.211H339.591M310.977 353.842V382.474M310.977 353.842H339.591M310.977 382.474V411.105M310.977 382.474H339.591M310.977 411.105V439.737M310.977 411.105H339.591M310.977 439.737V468.368M310.977 439.737H339.591M310.977 468.368V497M310.977 468.368H339.591M310.977 497H339.591M339.591 -47V-18.3684M339.591 -47H368.205M339.591 -18.3684V10.2632M339.591 -18.3684H368.205M339.591 10.2632V38.8947M339.591 10.2632H368.205M339.591 38.8947V67.5263M339.591 38.8947H368.205M339.591 67.5263V96.1579M339.591 67.5263H368.205M339.591 96.1579V124.789M339.591 96.1579H368.205M339.591 124.789V153.421M339.591 124.789H368.205M339.591 153.421V182.053M339.591 153.421H368.205M339.591 182.053V210.684M339.591 182.053H368.205M339.591 210.684V239.316M339.591 210.684H368.205M339.591 239.316V267.947M339.591 239.316H368.205M339.591 267.947V296.579M339.591 267.947H368.205M339.591 296.579V325.211M339.591 296.579H368.205M339.591 325.211V353.842M339.591 325.211H368.205M339.591 353.842V382.474M339.591 353.842H368.205M339.591 382.474V411.105M339.591 382.474H368.205M339.591 411.105V439.737M339.591 411.105H368.205M339.591 439.737V468.368M339.591 439.737H368.205M339.591 468.368V497M339.591 468.368H368.205M339.591 497H368.205M368.205 -47V-18.3684M368.205 -47H396.818M368.205 -18.3684V10.2632M368.205 -18.3684H396.818M368.205 10.2632V38.8947M368.205 10.2632H396.818M368.205 38.8947V67.5263M368.205 38.8947H396.818M368.205 67.5263V96.1579M368.205 67.5263H396.818M368.205 96.1579V124.789M368.205 96.1579H396.818M368.205 124.789V153.421M368.205 124.789H396.818M368.205 153.421V182.053M368.205 153.421H396.818M368.205 182.053V210.684M368.205 182.053H396.818M368.205 210.684V239.316M368.205 210.684H396.818M368.205 239.316V267.947M368.205 239.316H396.818M368.205 267.947V296.579M368.205 267.947H396.818M368.205 296.579V325.211M368.205 296.579H396.818M368.205 325.211V353.842M368.205 325.211H396.818M368.205 353.842V382.474M368.205 353.842H396.818M368.205 382.474V411.105M368.205 382.474H396.818M368.205 411.105V439.737M368.205 411.105H396.818M368.205 439.737V468.368M368.205 439.737H396.818M368.205 468.368V497M368.205 468.368H396.818M368.205 497H396.818M396.818 -47V-18.3684M396.818 -47H425.432M396.818 -18.3684V10.2632M396.818 -18.3684H425.432M396.818 10.2632V38.8947M396.818 10.2632H425.432M396.818 38.8947V67.5263M396.818 38.8947H425.432M396.818 67.5263V96.1579M396.818 67.5263H425.432M396.818 96.1579V124.789M396.818 96.1579H425.432M396.818 124.789V153.421M396.818 124.789H425.432M396.818 153.421V182.053M396.818 153.421H425.432M396.818 182.053V210.684M396.818 182.053H425.432M396.818 210.684V239.316M396.818 210.684H425.432M396.818 239.316V267.947M396.818 239.316H425.432M396.818 267.947V296.579M396.818 267.947H425.432M396.818 296.579V325.211M396.818 296.579H425.432M396.818 325.211V353.842M396.818 325.211H425.432M396.818 353.842V382.474M396.818 353.842H425.432M396.818 382.474V411.105M396.818 382.474H425.432M396.818 411.105V439.737M396.818 411.105H425.432M396.818 439.737V468.368M396.818 439.737H425.432M396.818 468.368V497M396.818 468.368H425.432M396.818 497H425.432M425.432 -47V-18.3684M425.432 -47H454.045M425.432 -18.3684V10.2632M425.432 -18.3684H454.045M425.432 10.2632V38.8947M425.432 10.2632H454.045M425.432 38.8947V67.5263M425.432 38.8947H454.045M425.432 67.5263V96.1579M425.432 67.5263H454.045M425.432 96.1579V124.789M425.432 96.1579H454.045M425.432 124.789V153.421M425.432 124.789H454.045M425.432 153.421V182.053M425.432 153.421H454.045M425.432 182.053V210.684M425.432 182.053H454.045M425.432 210.684V239.316M425.432 210.684H454.045M425.432 239.316V267.947M425.432 239.316H454.045M425.432 267.947V296.579M425.432 267.947H454.045M425.432 296.579V325.211M425.432 296.579H454.045M425.432 325.211V353.842M425.432 325.211H454.045M425.432 353.842V382.474M425.432 353.842H454.045M425.432 382.474V411.105M425.432 382.474H454.045M425.432 411.105V439.737M425.432 411.105H454.045M425.432 439.737V468.368M425.432 439.737H454.045M425.432 468.368V497M425.432 468.368H454.045M425.432 497H454.045M454.045 -47V-18.3684M454.045 -47H482.659M454.045 -18.3684V10.2632M454.045 -18.3684H482.659M454.045 10.2632V38.8947M454.045 10.2632H482.659M454.045 38.8947V67.5263M454.045 38.8947H482.659M454.045 67.5263V96.1579M454.045 67.5263H482.659M454.045 96.1579V124.789M454.045 96.1579H482.659M454.045 124.789V153.421M454.045 124.789H482.659M454.045 153.421V182.053M454.045 153.421H482.659M454.045 182.053V210.684M454.045 182.053H482.659M454.045 210.684V239.316M454.045 210.684H482.659M454.045 239.316V267.947M454.045 239.316H482.659M454.045 267.947V296.579M454.045 267.947H482.659M454.045 296.579V325.211M454.045 296.579H482.659M454.045 325.211V353.842M454.045 325.211H482.659M454.045 353.842V382.474M454.045 353.842H482.659M454.045 382.474V411.105M454.045 382.474H482.659M454.045 411.105V439.737M454.045 411.105H482.659M454.045 439.737V468.368M454.045 439.737H482.659M454.045 468.368V497M454.045 468.368H482.659M454.045 497H482.659M482.659 -47V-18.3684M482.659 -47H511.273M482.659 -18.3684V10.2632M482.659 -18.3684H511.273M482.659 10.2632V38.8947M482.659 10.2632H511.273M482.659 38.8947V67.5263M482.659 38.8947H511.273M482.659 67.5263V96.1579M482.659 67.5263H511.273M482.659 96.1579V124.789M482.659 96.1579H511.273M482.659 124.789V153.421M482.659 124.789H511.273M482.659 153.421V182.053M482.659 153.421H511.273M482.659 182.053V210.684M482.659 182.053H511.273M482.659 210.684V239.316M482.659 210.684H511.273M482.659 239.316V267.947M482.659 239.316H511.273M482.659 267.947V296.579M482.659 267.947H511.273M482.659 296.579V325.211M482.659 296.579H511.273M482.659 325.211V353.842M482.659 325.211H511.273M482.659 353.842V382.474M482.659 353.842H511.273M482.659 382.474V411.105M482.659 382.474H511.273M482.659 411.105V439.737M482.659 411.105H511.273M482.659 439.737V468.368M482.659 439.737H511.273M482.659 468.368V497M482.659 468.368H511.273M482.659 497H511.273M511.273 -47V-18.3684M511.273 -47H539.886M511.273 -18.3684V10.2632M511.273 -18.3684H539.886M511.273 10.2632V38.8947M511.273 10.2632H539.886M511.273 38.8947V67.5263M511.273 38.8947H539.886M511.273 67.5263V96.1579M511.273 67.5263H539.886M511.273 96.1579V124.789M511.273 96.1579H539.886M511.273 124.789V153.421M511.273 124.789H539.886M511.273 153.421V182.053M511.273 153.421H539.886M511.273 182.053V210.684M511.273 182.053H539.886M511.273 210.684V239.316M511.273 210.684H539.886M511.273 239.316V267.947M511.273 239.316H539.886M511.273 267.947V296.579M511.273 267.947H539.886M511.273 296.579V325.211M511.273 296.579H539.886M511.273 325.211V353.842M511.273 325.211H539.886M511.273 353.842V382.474M511.273 353.842H539.886M511.273 382.474V411.105M511.273 382.474H539.886M511.273 411.105V439.737M511.273 411.105H539.886M511.273 439.737V468.368M511.273 439.737H539.886M511.273 468.368V497M511.273 468.368H539.886M511.273 497H539.886M539.886 -47V-18.3684M539.886 -47H568.5M539.886 -18.3684V10.2632M539.886 -18.3684H568.5M539.886 10.2632V38.8947M539.886 10.2632H568.5M539.886 38.8947V67.5263M539.886 38.8947H568.5M539.886 67.5263V96.1579M539.886 67.5263H568.5M539.886 96.1579V124.789M539.886 96.1579H568.5M539.886 124.789V153.421M539.886 124.789H568.5M539.886 153.421V182.053M539.886 153.421H568.5M539.886 182.053V210.684M539.886 182.053H568.5M539.886 210.684V239.316M539.886 210.684H568.5M539.886 239.316V267.947M539.886 239.316H568.5M539.886 267.947V296.579M539.886 267.947H568.5M539.886 296.579V325.211M539.886 296.579H568.5M539.886 325.211V353.842M539.886 325.211H568.5M539.886 353.842V382.474M539.886 353.842H568.5M539.886 382.474V411.105M539.886 382.474H568.5M539.886 411.105V439.737M539.886 411.105H568.5M539.886 439.737V468.368M539.886 439.737H568.5M539.886 468.368V497M539.886 468.368H568.5M539.886 497H568.5M568.5 -47V-18.3684M568.5 -47H597.114M568.5 -18.3684V10.2632M568.5 -18.3684H597.114M568.5 10.2632V38.8947M568.5 10.2632H597.114M568.5 38.8947V67.5263M568.5 38.8947H597.114M568.5 67.5263V96.1579M568.5 67.5263H597.114M568.5 96.1579V124.789M568.5 96.1579H597.114M568.5 124.789V153.421M568.5 124.789H597.114M568.5 153.421V182.053M568.5 153.421H597.114M568.5 182.053V210.684M568.5 182.053H597.114M568.5 210.684V239.316M568.5 210.684H597.114M568.5 239.316V267.947M568.5 239.316H597.114M568.5 267.947V296.579M568.5 267.947H597.114M568.5 296.579V325.211M568.5 296.579H597.114M568.5 325.211V353.842M568.5 325.211H597.114M568.5 353.842V382.474M568.5 353.842H597.114M568.5 382.474V411.105M568.5 382.474H597.114M568.5 411.105V439.737M568.5 411.105H597.114M568.5 439.737V468.368M568.5 439.737H597.114M568.5 468.368V497M568.5 468.368H597.114M568.5 497H597.114M597.114 -47V-18.3684M597.114 -47H625.727M597.114 -18.3684V10.2632M597.114 -18.3684H625.727M597.114 10.2632V38.8947M597.114 10.2632H625.727M597.114 38.8947V67.5263M597.114 38.8947H625.727M597.114 67.5263V96.1579M597.114 67.5263H625.727M597.114 96.1579V124.789M597.114 96.1579H625.727M597.114 124.789V153.421M597.114 124.789H625.727M597.114 153.421V182.053M597.114 153.421H625.727M597.114 182.053V210.684M597.114 182.053H625.727M597.114 210.684V239.316M597.114 210.684H625.727M597.114 239.316V267.947M597.114 239.316H625.727M597.114 267.947V296.579M597.114 267.947H625.727M597.114 296.579V325.211M597.114 296.579H625.727M597.114 325.211V353.842M597.114 325.211H625.727M597.114 353.842V382.474M597.114 353.842H625.727M597.114 382.474V411.105M597.114 382.474H625.727M597.114 411.105V439.737M597.114 411.105H625.727M597.114 439.737V468.368M597.114 439.737H625.727M597.114 468.368V497M597.114 468.368H625.727M597.114 497H625.727M625.727 -47V-18.3684M625.727 -47H654.341M625.727 -18.3684V10.2632M625.727 -18.3684H654.341M625.727 10.2632V38.8947M625.727 10.2632H654.341M625.727 38.8947V67.5263M625.727 38.8947H654.341M625.727 67.5263V96.1579M625.727 67.5263H654.341M625.727 96.1579V124.789M625.727 96.1579H654.341M625.727 124.789V153.421M625.727 124.789H654.341M625.727 153.421V182.053M625.727 153.421H654.341M625.727 182.053V210.684M625.727 182.053H654.341M625.727 210.684V239.316M625.727 210.684H654.341M625.727 239.316V267.947M625.727 239.316H654.341M625.727 267.947V296.579M625.727 267.947H654.341M625.727 296.579V325.211M625.727 296.579H654.341M625.727 325.211V353.842M625.727 325.211H654.341M625.727 353.842V382.474M625.727 353.842H654.341M625.727 382.474V411.105M625.727 382.474H654.341M625.727 411.105V439.737M625.727 411.105H654.341M625.727 439.737V468.368M625.727 439.737H654.341M625.727 468.368V497M625.727 468.368H654.341M625.727 497H654.341M654.341 -47V-18.3684M654.341 -47H682.955M654.341 -18.3684V10.2632M654.341 -18.3684H682.955M654.341 10.2632V38.8947M654.341 10.2632H682.955M654.341 38.8947V67.5263M654.341 38.8947H682.955M654.341 67.5263V96.1579M654.341 67.5263H682.955M654.341 96.1579V124.789M654.341 96.1579H682.955M654.341 124.789V153.421M654.341 124.789H682.955M654.341 153.421V182.053M654.341 153.421H682.955M654.341 182.053V210.684M654.341 182.053H682.955M654.341 210.684V239.316M654.341 210.684H682.955M654.341 239.316V267.947M654.341 239.316H682.955M654.341 267.947V296.579M654.341 267.947H682.955M654.341 296.579V325.211M654.341 296.579H682.955M654.341 325.211V353.842M654.341 325.211H682.955M654.341 353.842V382.474M654.341 353.842H682.955M654.341 382.474V411.105M654.341 382.474H682.955M654.341 411.105V439.737M654.341 411.105H682.955M654.341 439.737V468.368M654.341 439.737H682.955M654.341 468.368V497M654.341 468.368H682.955M654.341 497H682.955M682.955 -47V-18.3684M682.955 -47H711.568M682.955 -18.3684V10.2632M682.955 -18.3684H711.568M682.955 10.2632V38.8947M682.955 10.2632H711.568M682.955 38.8947V67.5263M682.955 38.8947H711.568M682.955 67.5263V96.1579M682.955 67.5263H711.568M682.955 96.1579V124.789M682.955 96.1579H711.568M682.955 124.789V153.421M682.955 124.789H711.568M682.955 153.421V182.053M682.955 153.421H711.568M682.955 182.053V210.684M682.955 182.053H711.568M682.955 210.684V239.316M682.955 210.684H711.568M682.955 239.316V267.947M682.955 239.316H711.568M682.955 267.947V296.579M682.955 267.947H711.568M682.955 296.579V325.211M682.955 296.579H711.568M682.955 325.211V353.842M682.955 325.211H711.568M682.955 353.842V382.474M682.955 353.842H711.568M682.955 382.474V411.105M682.955 382.474H711.568M682.955 411.105V439.737M682.955 411.105H711.568M682.955 439.737V468.368M682.955 439.737H711.568M682.955 468.368V497M682.955 468.368H711.568M682.955 497H711.568M711.568 -47V-18.3684M711.568 -47H740.182M711.568 -18.3684V10.2632M711.568 -18.3684H740.182M711.568 10.2632V38.8947M711.568 10.2632H740.182M711.568 38.8947V67.5263M711.568 38.8947H740.182M711.568 67.5263V96.1579M711.568 67.5263H740.182M711.568 96.1579V124.789M711.568 96.1579H740.182M711.568 124.789V153.421M711.568 124.789H740.182M711.568 153.421V182.053M711.568 153.421H740.182M711.568 182.053V210.684M711.568 182.053H740.182M711.568 210.684V239.316M711.568 210.684H740.182M711.568 239.316V267.947M711.568 239.316H740.182M711.568 267.947V296.579M711.568 267.947H740.182M711.568 296.579V325.211M711.568 296.579H740.182M711.568 325.211V353.842M711.568 325.211H740.182M711.568 353.842V382.474M711.568 353.842H740.182M711.568 382.474V411.105M711.568 382.474H740.182M711.568 411.105V439.737M711.568 411.105H740.182M711.568 439.737V468.368M711.568 439.737H740.182M711.568 468.368V497M711.568 468.368H740.182M711.568 497H740.182M740.182 -47V-18.3684M740.182 -47H768.795M740.182 -18.3684V10.2632M740.182 -18.3684H768.795M740.182 10.2632V38.8947M740.182 10.2632H768.795M740.182 38.8947V67.5263M740.182 38.8947H768.795M740.182 67.5263V96.1579M740.182 67.5263H768.795M740.182 96.1579V124.789M740.182 96.1579H768.795M740.182 124.789V153.421M740.182 124.789H768.795M740.182 153.421V182.053M740.182 153.421H768.795M740.182 182.053V210.684M740.182 182.053H768.795M740.182 210.684V239.316M740.182 210.684H768.795M740.182 239.316V267.947M740.182 239.316H768.795M740.182 267.947V296.579M740.182 267.947H768.795M740.182 296.579V325.211M740.182 296.579H768.795M740.182 325.211V353.842M740.182 325.211H768.795M740.182 353.842V382.474M740.182 353.842H768.795M740.182 382.474V411.105M740.182 382.474H768.795M740.182 411.105V439.737M740.182 411.105H768.795M740.182 439.737V468.368M740.182 439.737H768.795M740.182 468.368V497M740.182 468.368H768.795M740.182 497H768.795M768.795 -47V-18.3684M768.795 -47H797.409M768.795 -18.3684V10.2632M768.795 -18.3684H797.409M768.795 10.2632V38.8947M768.795 10.2632H797.409M768.795 38.8947V67.5263M768.795 38.8947H797.409M768.795 67.5263V96.1579M768.795 67.5263H797.409M768.795 96.1579V124.789M768.795 96.1579H797.409M768.795 124.789V153.421M768.795 124.789H797.409M768.795 153.421V182.053M768.795 153.421H797.409M768.795 182.053V210.684M768.795 182.053H797.409M768.795 210.684V239.316M768.795 210.684H797.409M768.795 239.316V267.947M768.795 239.316H797.409M768.795 267.947V296.579M768.795 267.947H797.409M768.795 296.579V325.211M768.795 296.579H797.409M768.795 325.211V353.842M768.795 325.211H797.409M768.795 353.842V382.474M768.795 353.842H797.409M768.795 382.474V411.105M768.795 382.474H797.409M768.795 411.105V439.737M768.795 411.105H797.409M768.795 439.737V468.368M768.795 439.737H797.409M768.795 468.368V497M768.795 468.368H797.409M768.795 497H797.409M797.409 -47V-18.3684M797.409 -47H826.023M797.409 -18.3684V10.2632M797.409 -18.3684H826.023M797.409 10.2632V38.8947M797.409 10.2632H826.023M797.409 38.8947V67.5263M797.409 38.8947H826.023M797.409 67.5263V96.1579M797.409 67.5263H826.023M797.409 96.1579V124.789M797.409 96.1579H826.023M797.409 124.789V153.421M797.409 124.789H826.023M797.409 153.421V182.053M797.409 153.421H826.023M797.409 182.053V210.684M797.409 182.053H826.023M797.409 210.684V239.316M797.409 210.684H826.023M797.409 239.316V267.947M797.409 239.316H826.023M797.409 267.947V296.579M797.409 267.947H826.023M797.409 296.579V325.211M797.409 296.579H826.023M797.409 325.211V353.842M797.409 325.211H826.023M797.409 353.842V382.474M797.409 353.842H826.023M797.409 382.474V411.105M797.409 382.474H826.023M797.409 411.105V439.737M797.409 411.105H826.023M797.409 439.737V468.368M797.409 439.737H826.023M797.409 468.368V497M797.409 468.368H826.023M797.409 497H826.023M826.023 -47V-18.3684M826.023 -47H854.636M826.023 -18.3684V10.2632M826.023 -18.3684H854.636M826.023 10.2632V38.8947M826.023 10.2632H854.636M826.023 38.8947V67.5263M826.023 38.8947H854.636M826.023 67.5263V96.1579M826.023 67.5263H854.636M826.023 96.1579V124.789M826.023 96.1579H854.636M826.023 124.789V153.421M826.023 124.789H854.636M826.023 153.421V182.053M826.023 153.421H854.636M826.023 182.053V210.684M826.023 182.053H854.636M826.023 210.684V239.316M826.023 210.684H854.636M826.023 239.316V267.947M826.023 239.316H854.636M826.023 267.947V296.579M826.023 267.947H854.636M826.023 296.579V325.211M826.023 296.579H854.636M826.023 325.211V353.842M826.023 325.211H854.636M826.023 353.842V382.474M826.023 353.842H854.636M826.023 382.474V411.105M826.023 382.474H854.636M826.023 411.105V439.737M826.023 411.105H854.636M826.023 439.737V468.368M826.023 439.737H854.636M826.023 468.368V497M826.023 468.368H854.636M826.023 497H854.636M854.636 -47V-18.3684M854.636 -47H883.25M854.636 -18.3684V10.2632M854.636 -18.3684H883.25M854.636 10.2632V38.8947M854.636 10.2632H883.25M854.636 38.8947V67.5263M854.636 38.8947H883.25M854.636 67.5263V96.1579M854.636 67.5263H883.25M854.636 96.1579V124.789M854.636 96.1579H883.25M854.636 124.789V153.421M854.636 124.789H883.25M854.636 153.421V182.053M854.636 153.421H883.25M854.636 182.053V210.684M854.636 182.053H883.25M854.636 210.684V239.316M854.636 210.684H883.25M854.636 239.316V267.947M854.636 239.316H883.25M854.636 267.947V296.579M854.636 267.947H883.25M854.636 296.579V325.211M854.636 296.579H883.25M854.636 325.211V353.842M854.636 325.211H883.25M854.636 353.842V382.474M854.636 353.842H883.25M854.636 382.474V411.105M854.636 382.474H883.25M854.636 411.105V439.737M854.636 411.105H883.25M854.636 439.737V468.368M854.636 439.737H883.25M854.636 468.368V497M854.636 468.368H883.25M854.636 497H883.25M883.25 -47V-18.3684M883.25 -47H911.864M883.25 -18.3684V10.2632M883.25 -18.3684H911.864M883.25 10.2632V38.8947M883.25 10.2632H911.864M883.25 38.8947V67.5263M883.25 38.8947H911.864M883.25 67.5263V96.1579M883.25 67.5263H911.864M883.25 96.1579V124.789M883.25 96.1579H911.864M883.25 124.789V153.421M883.25 124.789H911.864M883.25 153.421V182.053M883.25 153.421H911.864M883.25 182.053V210.684M883.25 182.053H911.864M883.25 210.684V239.316M883.25 210.684H911.864M883.25 239.316V267.947M883.25 239.316H911.864M883.25 267.947V296.579M883.25 267.947H911.864M883.25 296.579V325.211M883.25 296.579H911.864M883.25 325.211V353.842M883.25 325.211H911.864M883.25 353.842V382.474M883.25 353.842H911.864M883.25 382.474V411.105M883.25 382.474H911.864M883.25 411.105V439.737M883.25 411.105H911.864M883.25 439.737V468.368M883.25 439.737H911.864M883.25 468.368V497M883.25 468.368H911.864M883.25 497H911.864M911.864 -47V-18.3684M911.864 -47H940.477M911.864 -18.3684V10.2632M911.864 -18.3684H940.477M911.864 10.2632V38.8947M911.864 10.2632H940.477M911.864 38.8947V67.5263M911.864 38.8947H940.477M911.864 67.5263V96.1579M911.864 67.5263H940.477M911.864 96.1579V124.789M911.864 96.1579H940.477M911.864 124.789V153.421M911.864 124.789H940.477M911.864 153.421V182.053M911.864 153.421H940.477M911.864 182.053V210.684M911.864 182.053H940.477M911.864 210.684V239.316M911.864 210.684H940.477M911.864 239.316V267.947M911.864 239.316H940.477M911.864 267.947V296.579M911.864 267.947H940.477M911.864 296.579V325.211M911.864 296.579H940.477M911.864 325.211V353.842M911.864 325.211H940.477M911.864 353.842V382.474M911.864 353.842H940.477M911.864 382.474V411.105M911.864 382.474H940.477M911.864 411.105V439.737M911.864 411.105H940.477M911.864 439.737V468.368M911.864 439.737H940.477M911.864 468.368V497M911.864 468.368H940.477M911.864 497H940.477M940.477 -47V-18.3684M940.477 -47H969.091M940.477 -18.3684V10.2632M940.477 -18.3684H969.091M940.477 10.2632V38.8947M940.477 10.2632H969.091M940.477 38.8947V67.5263M940.477 38.8947H969.091M940.477 67.5263V96.1579M940.477 67.5263H969.091M940.477 96.1579V124.789M940.477 96.1579H969.091M940.477 124.789V153.421M940.477 124.789H969.091M940.477 153.421V182.053M940.477 153.421H969.091M940.477 182.053V210.684M940.477 182.053H969.091M940.477 210.684V239.316M940.477 210.684H969.091M940.477 239.316V267.947M940.477 239.316H969.091M940.477 267.947V296.579M940.477 267.947H969.091M940.477 296.579V325.211M940.477 296.579H969.091M940.477 325.211V353.842M940.477 325.211H969.091M940.477 353.842V382.474M940.477 353.842H969.091M940.477 382.474V411.105M940.477 382.474H969.091M940.477 411.105V439.737M940.477 411.105H969.091M940.477 439.737V468.368M940.477 439.737H969.091M940.477 468.368V497M940.477 468.368H969.091M940.477 497H969.091M969.091 -47V-18.3684M969.091 -47H997.705M969.091 -18.3684V10.2632M969.091 -18.3684H997.705M969.091 10.2632V38.8947M969.091 10.2632H997.705M969.091 38.8947V67.5263M969.091 38.8947H997.705M969.091 67.5263V96.1579M969.091 67.5263H997.705M969.091 96.1579V124.789M969.091 96.1579H997.705M969.091 124.789V153.421M969.091 124.789H997.705M969.091 153.421V182.053M969.091 153.421H997.705M969.091 182.053V210.684M969.091 182.053H997.705M969.091 210.684V239.316M969.091 210.684H997.705M969.091 239.316V267.947M969.091 239.316H997.705M969.091 267.947V296.579M969.091 267.947H997.705M969.091 296.579V325.211M969.091 296.579H997.705M969.091 325.211V353.842M969.091 325.211H997.705M969.091 353.842V382.474M969.091 353.842H997.705M969.091 382.474V411.105M969.091 382.474H997.705M969.091 411.105V439.737M969.091 411.105H997.705M969.091 439.737V468.368M969.091 439.737H997.705M969.091 468.368V497M969.091 468.368H997.705M969.091 497H997.705M997.705 -47V-18.3684M997.705 -47H1026.32M997.705 -18.3684V10.2632M997.705 -18.3684H1026.32M997.705 10.2632V38.8947M997.705 10.2632H1026.32M997.705 38.8947V67.5263M997.705 38.8947H1026.32M997.705 67.5263V96.1579M997.705 67.5263H1026.32M997.705 96.1579V124.789M997.705 96.1579H1026.32M997.705 124.789V153.421M997.705 124.789H1026.32M997.705 153.421V182.053M997.705 153.421H1026.32M997.705 182.053V210.684M997.705 182.053H1026.32M997.705 210.684V239.316M997.705 210.684H1026.32M997.705 239.316V267.947M997.705 239.316H1026.32M997.705 267.947V296.579M997.705 267.947H1026.32M997.705 296.579V325.211M997.705 296.579H1026.32M997.705 325.211V353.842M997.705 325.211H1026.32M997.705 353.842V382.474M997.705 353.842H1026.32M997.705 382.474V411.105M997.705 382.474H1026.32M997.705 411.105V439.737M997.705 411.105H1026.32M997.705 439.737V468.368M997.705 439.737H1026.32M997.705 468.368V497M997.705 468.368H1026.32M997.705 497H1026.32M1026.32 -47V-18.3684M1026.32 -47H1054.93M1026.32 -18.3684V10.2632M1026.32 -18.3684H1054.93M1026.32 10.2632V38.8947M1026.32 10.2632H1054.93M1026.32 38.8947V67.5263M1026.32 38.8947H1054.93M1026.32 67.5263V96.1579M1026.32 67.5263H1054.93M1026.32 96.1579V124.789M1026.32 96.1579H1054.93M1026.32 124.789V153.421M1026.32 124.789H1054.93M1026.32 153.421V182.053M1026.32 153.421H1054.93M1026.32 182.053V210.684M1026.32 182.053H1054.93M1026.32 210.684V239.316M1026.32 210.684H1054.93M1026.32 239.316V267.947M1026.32 239.316H1054.93M1026.32 267.947V296.579M1026.32 267.947H1054.93M1026.32 296.579V325.211M1026.32 296.579H1054.93M1026.32 325.211V353.842M1026.32 325.211H1054.93M1026.32 353.842V382.474M1026.32 353.842H1054.93M1026.32 382.474V411.105M1026.32 382.474H1054.93M1026.32 411.105V439.737M1026.32 411.105H1054.93M1026.32 439.737V468.368M1026.32 439.737H1054.93M1026.32 468.368V497M1026.32 468.368H1054.93M1026.32 497H1054.93M1054.93 -47V-18.3684M1054.93 -47H1083.55M1054.93 -18.3684V10.2632M1054.93 -18.3684H1083.55M1054.93 10.2632V38.8947M1054.93 10.2632H1083.55M1054.93 38.8947V67.5263M1054.93 38.8947H1083.55M1054.93 67.5263V96.1579M1054.93 67.5263H1083.55M1054.93 96.1579V124.789M1054.93 96.1579H1083.55M1054.93 124.789V153.421M1054.93 124.789H1083.55M1054.93 153.421V182.053M1054.93 153.421H1083.55M1054.93 182.053V210.684M1054.93 182.053H1083.55M1054.93 210.684V239.316M1054.93 210.684H1083.55M1054.93 239.316V267.947M1054.93 239.316H1083.55M1054.93 267.947V296.579M1054.93 267.947H1083.55M1054.93 296.579V325.211M1054.93 296.579H1083.55M1054.93 325.211V353.842M1054.93 325.211H1083.55M1054.93 353.842V382.474M1054.93 353.842H1083.55M1054.93 382.474V411.105M1054.93 382.474H1083.55M1054.93 411.105V439.737M1054.93 411.105H1083.55M1054.93 439.737V468.368M1054.93 439.737H1083.55M1054.93 468.368V497M1054.93 468.368H1083.55M1054.93 497H1083.55M1083.55 -47V-18.3684M1083.55 -47H1112.16M1083.55 -18.3684V10.2632M1083.55 -18.3684H1112.16M1083.55 10.2632V38.8947M1083.55 10.2632H1112.16M1083.55 38.8947V67.5263M1083.55 38.8947H1112.16M1083.55 67.5263V96.1579M1083.55 67.5263H1112.16M1083.55 96.1579V124.789M1083.55 96.1579H1112.16M1083.55 124.789V153.421M1083.55 124.789H1112.16M1083.55 153.421V182.053M1083.55 153.421H1112.16M1083.55 182.053V210.684M1083.55 182.053H1112.16M1083.55 210.684V239.316M1083.55 210.684H1112.16M1083.55 239.316V267.947M1083.55 239.316H1112.16M1083.55 267.947V296.579M1083.55 267.947H1112.16M1083.55 296.579V325.211M1083.55 296.579H1112.16M1083.55 325.211V353.842M1083.55 325.211H1112.16M1083.55 353.842V382.474M1083.55 353.842H1112.16M1083.55 382.474V411.105M1083.55 382.474H1112.16M1083.55 411.105V439.737M1083.55 411.105H1112.16M1083.55 439.737V468.368M1083.55 439.737H1112.16M1083.55 468.368V497M1083.55 468.368H1112.16M1083.55 497H1112.16M1112.16 -47V-18.3684M1112.16 -47H1140.77M1112.16 -18.3684V10.2632M1112.16 -18.3684H1140.77M1112.16 10.2632V38.8947M1112.16 10.2632H1140.77M1112.16 38.8947V67.5263M1112.16 38.8947H1140.77M1112.16 67.5263V96.1579M1112.16 67.5263H1140.77M1112.16 96.1579V124.789M1112.16 96.1579H1140.77M1112.16 124.789V153.421M1112.16 124.789H1140.77M1112.16 153.421V182.053M1112.16 153.421H1140.77M1112.16 182.053V210.684M1112.16 182.053H1140.77M1112.16 210.684V239.316M1112.16 210.684H1140.77M1112.16 239.316V267.947M1112.16 239.316H1140.77M1112.16 267.947V296.579M1112.16 267.947H1140.77M1112.16 296.579V325.211M1112.16 296.579H1140.77M1112.16 325.211V353.842M1112.16 325.211H1140.77M1112.16 353.842V382.474M1112.16 353.842H1140.77M1112.16 382.474V411.105M1112.16 382.474H1140.77M1112.16 411.105V439.737M1112.16 411.105H1140.77M1112.16 439.737V468.368M1112.16 439.737H1140.77M1112.16 468.368V497M1112.16 468.368H1140.77M1112.16 497H1140.77M1140.77 -47V-18.3684M1140.77 -47H1169.39M1140.77 -18.3684V10.2632M1140.77 -18.3684H1169.39M1140.77 10.2632V38.8947M1140.77 10.2632H1169.39M1140.77 38.8947V67.5263M1140.77 38.8947H1169.39M1140.77 67.5263V96.1579M1140.77 67.5263H1169.39M1140.77 96.1579V124.789M1140.77 96.1579H1169.39M1140.77 124.789V153.421M1140.77 124.789H1169.39M1140.77 153.421V182.053M1140.77 153.421H1169.39M1140.77 182.053V210.684M1140.77 182.053H1169.39M1140.77 210.684V239.316M1140.77 210.684H1169.39M1140.77 239.316V267.947M1140.77 239.316H1169.39M1140.77 267.947V296.579M1140.77 267.947H1169.39M1140.77 296.579V325.211M1140.77 296.579H1169.39M1140.77 325.211V353.842M1140.77 325.211H1169.39M1140.77 353.842V382.474M1140.77 353.842H1169.39M1140.77 382.474V411.105M1140.77 382.474H1169.39M1140.77 411.105V439.737M1140.77 411.105H1169.39M1140.77 439.737V468.368M1140.77 439.737H1169.39M1140.77 468.368V497M1140.77 468.368H1169.39M1140.77 497H1169.39M1169.39 -47V-18.3684M1169.39 -47H1198V-18.3684M1169.39 -18.3684V10.2632M1169.39 -18.3684H1198M1169.39 10.2632V38.8947M1169.39 10.2632H1198M1169.39 38.8947V67.5263M1169.39 38.8947H1198M1169.39 67.5263V96.1579M1169.39 67.5263H1198M1169.39 96.1579V124.789M1169.39 96.1579H1198M1169.39 124.789V153.421M1169.39 124.789H1198M1169.39 153.421V182.053M1169.39 153.421H1198M1169.39 182.053V210.684M1169.39 182.053H1198M1169.39 210.684V239.316M1169.39 210.684H1198M1169.39 239.316V267.947M1169.39 239.316H1198M1169.39 267.947V296.579M1169.39 267.947H1198M1169.39 296.579V325.211M1169.39 296.579H1198M1169.39 325.211V353.842M1169.39 325.211H1198M1169.39 353.842V382.474M1169.39 353.842H1198M1169.39 382.474V411.105M1169.39 382.474H1198M1169.39 411.105V439.737M1169.39 411.105H1198M1169.39 439.737V468.368M1169.39 439.737H1198M1169.39 468.368V497M1169.39 468.368H1198M1169.39 497H1198V468.368M1198 -18.3684V10.2632M1198 10.2632V38.8947M1198 38.8947V67.5263M1198 67.5263V96.1579M1198 96.1579V124.789M1198 124.789V153.421M1198 153.421V182.053M1198 182.053V210.684M1198 210.684V239.316M1198 239.316V267.947M1198 267.947V296.579M1198 296.579V325.211M1198 325.211V353.842M1198 353.842V382.474M1198 382.474V411.105M1198 411.105V439.737M1198 439.737V468.368" stroke="url(#paint0_radial_6_502)" stroke-opacity="0.13"/>
</g>
</g>
<defs>
<radialGradient id="paint0_radial_6_502" cx="0" cy="0" r="1" gradientUnits="userSpaceOnUse" gradientTransform="translate(568.5 225) rotate(90) scale(272 508.332)">
<stop stop-color="white"/>
<stop offset="1" stop-color="white" stop-opacity="0.2"/>
</radialGradient>
</defs>
</svg>
