<svg width="752" height="326" viewBox="0 0 752 326" fill="none" xmlns="http://www.w3.org/2000/svg">
<rect x="7" width="212" height="450" rx="50" fill="white"/>
<path d="M3.97144 65.2246H0.942871V81.4044H3.97144V65.2246Z" fill="#141414"/>
<path d="M3.97144 99.6064H0.942871V130.449H3.97144V99.6064Z" fill="#141414"/>
<path d="M3.97144 141.573H0.942871V173.932H3.97144V141.573Z" fill="#141414"/>
<path d="M223.038 92.5278H220.514V147.64H223.038V92.5278Z" fill="#141414"/>
<path d="M182.269 0H41.7126C31.2908 0.0307833 21.3063 4.19946 13.9478 11.5922C6.58933 18.985 2.45723 28.9987 2.45728 39.4382V410.562C2.45723 421.001 6.58933 431.015 13.9478 438.408C21.3063 445.801 31.2908 449.969 41.7126 450H182.269C192.69 449.969 202.675 445.801 210.033 438.408C217.392 431.015 221.524 421.001 221.524 410.562V39.4382C221.524 28.9987 217.392 18.985 210.033 11.5922C202.675 4.19946 192.69 0.0307833 182.269 0ZM210.419 411.573C210.403 418.824 207.514 425.773 202.388 430.892C197.261 436.011 190.315 438.883 183.076 438.876H40.905C33.666 438.883 26.7203 436.011 21.5935 430.892C16.4667 425.773 13.5781 418.824 13.562 411.573V36.4045C13.562 33.214 14.1901 30.0547 15.4102 27.1075C16.6303 24.1604 18.4186 21.4831 20.6727 19.2289C22.9268 16.9748 25.6025 15.1879 28.5467 13.9706C31.4909 12.7533 34.6459 12.1295 37.831 12.1348H183.076C186.664 12.1275 190.218 12.829 193.535 14.199C196.851 15.5691 199.866 17.5809 202.405 20.1192C204.945 22.6576 206.96 25.6727 208.335 28.992C209.71 32.3113 210.419 35.8697 210.419 39.4635V411.573Z" fill="#141414"/>
<path d="M69.5906 11.6294H153.886V16.0533C153.887 17.5973 153.527 19.1263 152.827 20.5529C152.127 21.9795 151.1 23.2757 149.806 24.3675C148.512 25.4592 146.975 26.3251 145.284 26.9157C143.593 27.5062 141.781 27.8098 139.951 27.8092H83.5257C81.6955 27.8098 79.8831 27.5062 78.192 26.9157C76.501 26.3251 74.9645 25.4592 73.6703 24.3675C72.3761 23.2757 71.3497 21.9795 70.6497 20.5529C69.9497 19.1263 69.5898 17.5973 69.5906 16.0533V11.6294Z" fill="#141414"/>
<path d="M90.2858 16.2705C90.2861 16.8564 90.1129 17.4293 89.7883 17.9166C89.4636 18.404 89.0019 18.7839 88.4617 19.0085C87.9215 19.2331 87.3269 19.2922 86.7531 19.1783C86.1794 19.0645 85.6522 18.7828 85.2382 18.3689C84.8224 17.9554 84.5393 17.4271 84.4251 16.8515C84.3109 16.2759 84.3708 15.6792 84.5972 15.138C84.8196 14.5958 85.1981 14.1323 85.6844 13.8063C86.1707 13.4804 86.7428 13.3068 87.3279 13.3076C88.113 13.3111 88.8653 13.6234 89.4227 14.1773C89.6975 14.4518 89.9152 14.7781 90.0633 15.1374C90.2115 15.4967 90.2871 15.8818 90.2858 16.2705Z" fill="#1C1D22"/>
<path d="M88.7712 16.271C88.7708 16.4893 88.7222 16.7048 88.6289 16.9021C88.5356 17.0994 88.3999 17.2736 88.2316 17.4123C88.0633 17.5509 87.8665 17.6506 87.6552 17.7042C87.444 17.7577 87.2235 17.7639 87.0096 17.7222C86.7254 17.6624 86.4643 17.522 86.2575 17.3177C86.0503 17.1109 85.9096 16.8468 85.8537 16.5592C85.7984 16.2738 85.8283 15.9784 85.9395 15.7098C86.0487 15.4395 86.237 15.2086 86.4796 15.0474C86.7624 14.8552 87.1035 14.7681 87.4437 14.8014C87.7839 14.8346 88.1018 14.9861 88.3422 15.2295C88.4785 15.3663 88.5865 15.5288 88.6602 15.7075C88.7338 15.8862 88.7715 16.0777 88.7712 16.271Z" fill="#25295F"/>
<path d="M87.3173 19.7189C88.0072 19.72 88.6818 19.5158 89.2556 19.1324C89.6824 18.8445 90.0401 18.4653 90.303 18.0221C90.5658 17.579 90.7271 17.0829 90.7754 16.5697C90.8237 16.0566 90.7577 15.5391 90.5822 15.0545C90.4066 14.57 90.126 14.1305 89.7604 13.7678C89.2745 13.2788 88.6542 12.9461 87.9786 12.8122C87.4739 12.7111 86.9531 12.7236 86.4539 12.8486C85.9546 12.9736 85.4892 13.208 85.0913 13.535C84.6934 13.862 84.3729 14.2733 84.153 14.7394C83.933 15.2055 83.8191 15.7146 83.8193 16.2301C83.8193 17.1545 84.1856 18.0412 84.8377 18.6953C85.4897 19.3494 86.3743 19.7176 87.2971 19.7189H87.3173Z" fill="#2B2B29"/>
<path d="M101.547 10.1123C101.116 10.1359 100.711 10.3239 100.415 10.6375C100.118 10.9512 99.9529 11.3666 99.9529 11.7985C99.9529 12.2304 100.118 12.6459 100.415 12.9596C100.711 13.2732 101.116 13.4612 101.547 13.4848H121.712C122.142 13.4612 122.547 13.2732 122.844 12.9596C123.14 12.6459 123.305 12.2304 123.305 11.7985C123.305 11.3666 123.14 10.9512 122.844 10.6375C122.547 10.3239 122.142 10.1359 121.712 10.1123H101.547Z" fill="#2B2B29"/>
<g filter="url(#filter0_d_6_506)">
<rect x="271" y="50" width="212" height="450" rx="50" fill="white" shape-rendering="crispEdges"/>
<path d="M267.971 115.225H264.943V131.404H267.971V115.225Z" fill="#141414"/>
<path d="M267.971 149.606H264.943V180.449H267.971V149.606Z" fill="#141414"/>
<path d="M267.971 191.573H264.943V223.932H267.971V191.573Z" fill="#141414"/>
<path d="M487.038 142.528H484.514V197.64H487.038V142.528Z" fill="#141414"/>
<path d="M446.269 50H305.713C295.291 50.0308 285.306 54.1995 277.948 61.5922C270.589 68.985 266.457 78.9987 266.457 89.4382V460.562C266.457 471.001 270.589 481.015 277.948 488.408C285.306 495.801 295.291 499.969 305.713 500H446.269C456.69 499.969 466.675 495.801 474.033 488.408C481.392 481.015 485.524 471.001 485.524 460.562V89.4382C485.524 78.9987 481.392 68.985 474.033 61.5922C466.675 54.1995 456.69 50.0308 446.269 50ZM474.419 461.573C474.403 468.824 471.514 475.773 466.388 480.892C461.261 486.011 454.315 488.883 447.076 488.876H304.905C297.666 488.883 290.72 486.011 285.594 480.892C280.467 475.773 277.578 468.824 277.562 461.573V86.4045C277.562 83.214 278.19 80.0547 279.41 77.1075C280.63 74.1604 282.419 71.4831 284.673 69.2289C286.927 66.9748 289.603 65.1879 292.547 63.9706C295.491 62.7533 298.646 62.1295 301.831 62.1348H447.076C450.664 62.1275 454.218 62.829 457.535 64.199C460.851 65.5691 463.866 67.5809 466.405 70.1192C468.945 72.6576 470.96 75.6727 472.335 78.992C473.71 82.3113 474.419 85.8697 474.419 89.4635V461.573Z" fill="#141414"/>
<path d="M333.591 61.6294H417.886V66.0533C417.887 67.5973 417.527 69.1263 416.827 70.5529C416.127 71.9795 415.1 73.2757 413.806 74.3675C412.512 75.4592 410.975 76.3251 409.284 76.9157C407.593 77.5062 405.781 77.8098 403.951 77.8092H347.526C345.695 77.8098 343.883 77.5062 342.192 76.9157C340.501 76.3251 338.964 75.4592 337.67 74.3675C336.376 73.2757 335.35 71.9795 334.65 70.5529C333.95 69.1263 333.59 67.5973 333.591 66.0533V61.6294Z" fill="#141414"/>
<path d="M354.286 66.2705C354.286 66.8564 354.113 67.4293 353.788 67.9166C353.464 68.404 353.002 68.7839 352.462 69.0085C351.921 69.2331 351.327 69.2922 350.753 69.1783C350.179 69.0645 349.652 68.7828 349.238 68.3689C348.822 67.9554 348.539 67.4271 348.425 66.8515C348.311 66.2759 348.371 65.6792 348.597 65.138C348.82 64.5958 349.198 64.1323 349.684 63.8063C350.171 63.4804 350.743 63.3068 351.328 63.3076C352.113 63.3111 352.865 63.6234 353.423 64.1773C353.697 64.4518 353.915 64.7781 354.063 65.1374C354.211 65.4967 354.287 65.8818 354.286 66.2705Z" fill="#1C1D22"/>
<path d="M352.771 66.271C352.771 66.4893 352.722 66.7048 352.629 66.9021C352.536 67.0994 352.4 67.2736 352.232 67.4123C352.063 67.5509 351.866 67.6506 351.655 67.7042C351.444 67.7577 351.223 67.7639 351.01 67.7222C350.725 67.6624 350.464 67.522 350.257 67.3177C350.05 67.1109 349.91 66.8468 349.854 66.5592C349.798 66.2738 349.828 65.9784 349.939 65.7098C350.049 65.4395 350.237 65.2086 350.48 65.0474C350.762 64.8552 351.104 64.7681 351.444 64.8014C351.784 64.8346 352.102 64.9861 352.342 65.2295C352.478 65.3663 352.587 65.5288 352.66 65.7075C352.734 65.8862 352.772 66.0777 352.771 66.271Z" fill="#25295F"/>
<path d="M351.317 69.7189C352.007 69.72 352.682 69.5158 353.256 69.1324C353.682 68.8445 354.04 68.4653 354.303 68.0221C354.566 67.579 354.727 67.0829 354.775 66.5697C354.824 66.0566 354.758 65.5391 354.582 65.0545C354.407 64.57 354.126 64.1305 353.76 63.7678C353.275 63.2788 352.654 62.9461 351.979 62.8122C351.474 62.7111 350.953 62.7236 350.454 62.8486C349.955 62.9736 349.489 63.208 349.091 63.535C348.693 63.862 348.373 64.2733 348.153 64.7394C347.933 65.2055 347.819 65.7146 347.819 66.2301C347.819 67.1545 348.186 68.0412 348.838 68.6953C349.49 69.3494 350.374 69.7176 351.297 69.7189H351.317Z" fill="#2B2B29"/>
<path d="M365.547 60.1123C365.116 60.1359 364.711 60.3239 364.415 60.6375C364.118 60.9512 363.953 61.3666 363.953 61.7985C363.953 62.2304 364.118 62.6459 364.415 62.9596C364.711 63.2732 365.116 63.4612 365.547 63.4848H385.712C386.142 63.4612 386.547 63.2732 386.844 62.9596C387.14 62.6459 387.305 62.2304 387.305 61.7985C387.305 61.3666 387.14 60.9512 386.844 60.6375C386.547 60.3239 386.142 60.1359 385.712 60.1123H365.547Z" fill="#2B2B29"/>
</g>
<rect x="535" width="212" height="450" rx="50" fill="white"/>
<path d="M531.971 65.2246H528.943V81.4044H531.971V65.2246Z" fill="#141414"/>
<path d="M531.971 99.6064H528.943V130.449H531.971V99.6064Z" fill="#141414"/>
<path d="M531.971 141.573H528.943V173.932H531.971V141.573Z" fill="#141414"/>
<path d="M751.038 92.5278H748.514V147.64H751.038V92.5278Z" fill="#141414"/>
<path d="M710.269 0H569.713C559.291 0.0307833 549.306 4.19946 541.948 11.5922C534.589 18.985 530.457 28.9987 530.457 39.4382V410.562C530.457 421.001 534.589 431.015 541.948 438.408C549.306 445.801 559.291 449.969 569.713 450H710.269C720.69 449.969 730.675 445.801 738.033 438.408C745.392 431.015 749.524 421.001 749.524 410.562V39.4382C749.524 28.9987 745.392 18.985 738.033 11.5922C730.675 4.19946 720.69 0.0307833 710.269 0ZM738.419 411.573C738.403 418.824 735.514 425.773 730.388 430.892C725.261 436.011 718.315 438.883 711.076 438.876H568.905C561.666 438.883 554.72 436.011 549.594 430.892C544.467 425.773 541.578 418.824 541.562 411.573V36.4045C541.562 33.214 542.19 30.0547 543.41 27.1075C544.63 24.1604 546.419 21.4831 548.673 19.2289C550.927 16.9748 553.603 15.1879 556.547 13.9706C559.491 12.7533 562.646 12.1295 565.831 12.1348H711.076C714.664 12.1275 718.218 12.829 721.535 14.199C724.851 15.5691 727.866 17.5809 730.405 20.1192C732.945 22.6576 734.96 25.6727 736.335 28.992C737.71 32.3113 738.419 35.8697 738.419 39.4635V411.573Z" fill="#141414"/>
<path d="M597.591 11.6294H681.886V16.0533C681.887 17.5973 681.527 19.1263 680.827 20.5529C680.127 21.9795 679.1 23.2757 677.806 24.3675C676.512 25.4592 674.975 26.3251 673.284 26.9157C671.593 27.5062 669.781 27.8098 667.951 27.8092H611.526C609.695 27.8098 607.883 27.5062 606.192 26.9157C604.501 26.3251 602.964 25.4592 601.67 24.3675C600.376 23.2757 599.35 21.9795 598.65 20.5529C597.95 19.1263 597.59 17.5973 597.591 16.0533V11.6294Z" fill="#141414"/>
<path d="M618.286 16.2705C618.286 16.8564 618.113 17.4293 617.788 17.9166C617.464 18.404 617.002 18.7839 616.462 19.0085C615.921 19.2331 615.327 19.2922 614.753 19.1783C614.179 19.0645 613.652 18.7828 613.238 18.3689C612.822 17.9554 612.539 17.4271 612.425 16.8515C612.311 16.2759 612.371 15.6792 612.597 15.138C612.82 14.5958 613.198 14.1323 613.684 13.8063C614.171 13.4804 614.743 13.3068 615.328 13.3076C616.113 13.3111 616.865 13.6234 617.423 14.1773C617.697 14.4518 617.915 14.7781 618.063 15.1374C618.211 15.4967 618.287 15.8818 618.286 16.2705Z" fill="#1C1D22"/>
<path d="M616.771 16.271C616.771 16.4893 616.722 16.7048 616.629 16.9021C616.536 17.0994 616.4 17.2736 616.232 17.4123C616.063 17.5509 615.866 17.6506 615.655 17.7042C615.444 17.7577 615.223 17.7639 615.01 17.7222C614.725 17.6624 614.464 17.522 614.257 17.3177C614.05 17.1109 613.91 16.8468 613.854 16.5592C613.798 16.2738 613.828 15.9784 613.939 15.7098C614.049 15.4395 614.237 15.2086 614.48 15.0474C614.762 14.8552 615.104 14.7681 615.444 14.8014C615.784 14.8346 616.102 14.9861 616.342 15.2295C616.478 15.3663 616.587 15.5288 616.66 15.7075C616.734 15.8862 616.772 16.0777 616.771 16.271Z" fill="#25295F"/>
<path d="M615.317 19.7189C616.007 19.72 616.682 19.5158 617.256 19.1324C617.682 18.8445 618.04 18.4653 618.303 18.0221C618.566 17.579 618.727 17.0829 618.775 16.5697C618.824 16.0566 618.758 15.5391 618.582 15.0545C618.407 14.57 618.126 14.1305 617.76 13.7678C617.275 13.2788 616.654 12.9461 615.979 12.8122C615.474 12.7111 614.953 12.7236 614.454 12.8486C613.955 12.9736 613.489 13.208 613.091 13.535C612.693 13.862 612.373 14.2733 612.153 14.7394C611.933 15.2055 611.819 15.7146 611.819 16.2301C611.819 17.1545 612.186 18.0412 612.838 18.6953C613.49 19.3494 614.374 19.7176 615.297 19.7189H615.317Z" fill="#2B2B29"/>
<path d="M629.547 10.1123C629.116 10.1359 628.711 10.3239 628.415 10.6375C628.118 10.9512 627.953 11.3666 627.953 11.7985C627.953 12.2304 628.118 12.6459 628.415 12.9596C628.711 13.2732 629.116 13.4612 629.547 13.4848H649.712C650.142 13.4612 650.547 13.2732 650.844 12.9596C651.14 12.6459 651.305 12.2304 651.305 11.7985C651.305 11.3666 651.14 10.9512 650.844 10.6375C650.547 10.3239 650.142 10.1359 649.712 10.1123H629.547Z" fill="#2B2B29"/>
<defs>
<filter id="filter0_d_6_506" x="260.943" y="50" width="230.095" height="458" filterUnits="userSpaceOnUse" color-interpolation-filters="sRGB">
<feFlood flood-opacity="0" result="BackgroundImageFix"/>
<feColorMatrix in="SourceAlpha" type="matrix" values="0 0 0 0 0 0 0 0 0 0 0 0 0 0 0 0 0 0 127 0" result="hardAlpha"/>
<feOffset dy="4"/>
<feGaussianBlur stdDeviation="2"/>
<feComposite in2="hardAlpha" operator="out"/>
<feColorMatrix type="matrix" values="0 0 0 0 0 0 0 0 0 0 0 0 0 0 0 0 0 0 0.25 0"/>
<feBlend mode="normal" in2="BackgroundImageFix" result="effect1_dropShadow_6_506"/>
<feBlend mode="normal" in="SourceGraphic" in2="effect1_dropShadow_6_506" result="shape"/>
</filter>
</defs>
</svg>
