<svg width="19" height="18" viewBox="0 0 19 18" fill="none" xmlns="http://www.w3.org/2000/svg">
<path d="M16.4827 5.15881L13.3412 2.01655C13.2367 1.91205 13.1127 1.82916 12.9762 1.77261C12.8397 1.71606 12.6933 1.68695 12.5456 1.68695C12.3978 1.68695 12.2515 1.71606 12.115 1.77261C11.9785 1.82916 11.8545 1.91205 11.75 2.01655L3.07977 10.6875C2.97485 10.7916 2.89167 10.9155 2.83506 11.052C2.77844 11.1885 2.74953 11.3349 2.75001 11.4827V14.625C2.75001 14.9234 2.86853 15.2095 3.07951 15.4205C3.29049 15.6315 3.57664 15.75 3.87501 15.75H7.01727C7.16506 15.7505 7.31147 15.7215 7.44799 15.6649C7.58451 15.6083 7.70842 15.5251 7.81251 15.4202L16.4827 6.74998C16.5872 6.64551 16.6701 6.52148 16.7267 6.38498C16.7832 6.24847 16.8123 6.10216 16.8123 5.9544C16.8123 5.80664 16.7832 5.66033 16.7267 5.52382C16.6701 5.38731 16.5872 5.26328 16.4827 5.15881ZM7.01727 14.625H3.87501V11.4827L10.0625 5.29522L13.2048 8.43748L7.01727 14.625ZM14 7.64155L10.8577 4.49998L12.5452 2.81248L15.6875 5.95405L14 7.64155Z" fill="black"/>
</svg>
