<svg width="18" height="18" viewBox="0 0 18 18" fill="none" xmlns="http://www.w3.org/2000/svg">
<path d="M14.0625 7.87523C13.3854 7.87691 12.7244 8.08144 12.1646 8.46244C11.6049 8.84344 11.1722 9.38343 10.9223 10.0127C10.8443 10.0043 10.766 10.0001 10.6875 10.0001C9.44648 10.0001 8.4375 11.0379 8.4375 12.3127C8.4375 13.5874 9.44648 14.6252 10.6875 14.6252H14.0625C14.9576 14.6252 15.8161 14.2697 16.449 13.6367C17.0819 13.0038 17.4375 12.1453 17.4375 11.2502C17.4375 10.3551 17.0819 9.49668 16.449 8.86374C15.8161 8.23081 14.9576 7.87523 14.0625 7.87523ZM14.0625 13.5002H10.6875C10.0673 13.5002 9.5625 12.9673 9.5625 12.3127C9.5625 11.658 10.0673 11.1251 10.6875 11.1251C10.8269 11.1247 10.9651 11.1519 11.0939 11.2052C11.1705 11.2366 11.2531 11.2506 11.3358 11.2464C11.4184 11.2422 11.4991 11.2197 11.5721 11.1807C11.6451 11.1417 11.7086 11.0871 11.7581 11.0207C11.8075 10.9543 11.8417 10.8778 11.8582 10.7967C11.944 10.3799 12.1462 9.99593 12.4414 9.68942C12.7366 9.3829 13.1127 9.16639 13.526 9.06501C13.9393 8.96363 14.3729 8.98154 14.7764 9.11667C15.18 9.25179 15.5369 9.49859 15.8059 9.82841C16.0748 10.1582 16.2446 10.5576 16.2957 10.98C16.3468 11.4025 16.2771 11.8308 16.0946 12.2153C15.912 12.5997 15.6242 12.9245 15.2646 13.1519C14.9049 13.3794 14.4881 13.5001 14.0625 13.5002ZM1.6875 11.2502V12.3752C1.6875 12.5244 1.62824 12.6675 1.52275 12.773C1.41726 12.8785 1.27418 12.9377 1.125 12.9377C0.975816 12.9377 0.832742 12.8785 0.727252 12.773C0.621763 12.6675 0.5625 12.5244 0.5625 12.3752V11.2502C0.562552 9.81271 0.986298 8.4071 1.78077 7.20907C2.57525 6.01105 3.70521 5.07377 5.02942 4.51437C6.35363 3.95498 7.81334 3.79829 9.22611 4.0639C10.6389 4.3295 11.942 5.00562 12.9727 6.00773C13.0759 6.11249 13.134 6.25355 13.1346 6.40065C13.1351 6.54775 13.0779 6.68921 12.9754 6.79469C12.8729 6.90017 12.7331 6.96128 12.586 6.96493C12.439 6.96858 12.2963 6.91448 12.1887 6.81421C11.3166 5.96618 10.2139 5.394 9.01844 5.16921C7.82298 4.94441 6.58777 5.07698 5.46723 5.55033C4.34669 6.02368 3.39052 6.81682 2.71827 7.83059C2.04601 8.84437 1.68748 10.0338 1.6875 11.2502ZM3.9375 11.2502V12.3752C3.9375 12.5244 3.87824 12.6675 3.77275 12.773C3.66726 12.8785 3.52418 12.9377 3.375 12.9377C3.22582 12.9377 3.08274 12.8785 2.97725 12.773C2.87176 12.6675 2.8125 12.5244 2.8125 12.3752V11.2502C2.81309 10.3148 3.07284 9.39781 3.56294 8.60104C4.05303 7.80427 4.7543 7.15887 5.58893 6.73646C6.42356 6.31404 7.35891 6.13114 8.29118 6.20804C9.22345 6.28494 10.1162 6.61864 10.8703 7.1721C10.9319 7.215 10.9843 7.26979 11.0245 7.33325C11.0646 7.39672 11.0916 7.46757 11.1039 7.54163C11.1162 7.6157 11.1135 7.69147 11.0961 7.7645C11.0786 7.83752 11.0467 7.90631 11.0023 7.96681C10.9578 8.02732 10.9017 8.07831 10.8372 8.11679C10.7728 8.15526 10.7013 8.18045 10.6269 8.19085C10.5525 8.20125 10.4769 8.19666 10.4043 8.17736C10.3318 8.15805 10.2638 8.12441 10.2045 8.07843C9.61791 7.64803 8.92359 7.38854 8.19854 7.32876C7.47349 7.26898 6.74604 7.41125 6.09693 7.73978C5.44782 8.0683 4.90241 8.57024 4.52123 9.1899C4.14005 9.80956 3.938 10.5227 3.9375 11.2502ZM8.26664 9.60843C8.01866 9.54926 7.76049 9.54705 7.51153 9.60196C7.26257 9.65688 7.02929 9.76749 6.82921 9.92548C6.62912 10.0835 6.46744 10.2848 6.3563 10.5142C6.24515 10.7436 6.18744 10.9953 6.1875 11.2502V12.3752C6.1875 12.5244 6.12824 12.6675 6.02275 12.773C5.91726 12.8785 5.77418 12.9377 5.625 12.9377C5.47582 12.9377 5.33274 12.8785 5.22725 12.773C5.12176 12.6675 5.0625 12.5244 5.0625 12.3752V11.2502C5.0624 10.8254 5.15855 10.4061 5.34372 10.0237C5.52888 9.64138 5.79826 9.30594 6.13163 9.04261C6.46499 8.77927 6.85368 8.59488 7.26851 8.50327C7.68334 8.41166 8.11354 8.41521 8.5268 8.51367C8.59868 8.53075 8.6665 8.56182 8.72637 8.60511C8.78624 8.6484 8.83701 8.70306 8.87576 8.76597C8.91451 8.82888 8.94049 8.8988 8.95221 8.97175C8.96394 9.0447 8.96118 9.11924 8.9441 9.19113C8.92702 9.26301 8.89595 9.33083 8.85266 9.3907C8.80937 9.45058 8.75471 9.50134 8.6918 9.54009C8.62889 9.57884 8.55896 9.60482 8.48602 9.61654C8.41307 9.62827 8.33852 9.62551 8.26664 9.60843Z" fill="#272727"/>
</svg>
