<svg width="18" height="18" viewBox="0 0 18 18" fill="none" xmlns="http://www.w3.org/2000/svg">
<path d="M17.4376 9C17.4411 10.3396 17.0065 11.6436 16.2001 12.7132C16.1556 12.7723 16.1 12.8221 16.0364 12.8597C15.9727 12.8973 15.9023 12.922 15.8291 12.9323C15.7559 12.9427 15.6814 12.9386 15.6098 12.9202C15.5382 12.9018 15.4709 12.8694 15.4119 12.825C15.3528 12.7806 15.303 12.725 15.2654 12.6613C15.2278 12.5977 15.2031 12.5272 15.1927 12.4541C15.1823 12.3809 15.1865 12.3063 15.2049 12.2347C15.2233 12.1632 15.2556 12.0959 15.3001 12.0368C15.9602 11.1623 16.3158 10.0957 16.3126 9C16.3126 7.65734 15.7792 6.36967 14.8298 5.42027C13.8804 4.47087 12.5927 3.9375 11.2501 3.9375C9.9074 3.9375 8.61973 4.47087 7.67033 5.42027C6.72093 6.36967 6.18756 7.65734 6.18756 9C6.18756 9.14918 6.12829 9.29226 6.0228 9.39775C5.91732 9.50323 5.77424 9.5625 5.62506 9.5625C5.47587 9.5625 5.3328 9.50323 5.22731 9.39775C5.12182 9.29226 5.06256 9.14918 5.06256 9C5.06228 8.43235 5.14012 7.86736 5.29389 7.32093C5.21724 7.3125 5.1399 7.3125 5.06256 7.3125C4.16745 7.3125 3.30901 7.66808 2.67607 8.30101C2.04314 8.93395 1.68756 9.79239 1.68756 10.6875C1.68756 11.5826 2.04314 12.441 2.67607 13.074C3.30901 13.7069 4.16745 14.0625 5.06256 14.0625H6.75006C6.89924 14.0625 7.04232 14.1218 7.1478 14.2272C7.25329 14.3327 7.31256 14.4758 7.31256 14.625C7.31256 14.7742 7.25329 14.9173 7.1478 15.0227C7.04232 15.1282 6.89924 15.1875 6.75006 15.1875H5.06256C4.44393 15.1876 3.83192 15.0602 3.26474 14.8132C2.69757 14.5662 2.18742 14.2049 1.76615 13.7519C1.34488 13.2989 1.02154 12.7638 0.816327 12.1803C0.611115 11.5967 0.528436 10.977 0.573455 10.36C0.618474 9.74304 0.790223 9.14196 1.07798 8.59433C1.36573 8.0467 1.76331 7.56428 2.24587 7.17721C2.72844 6.79014 3.28564 6.50672 3.88266 6.34465C4.47968 6.18259 5.10371 6.14537 5.71576 6.23531C6.33901 4.98878 7.36483 3.98916 8.62707 3.39836C9.8893 2.80757 11.314 2.6602 12.6705 2.98013C14.0269 3.30005 15.2356 4.06854 16.1008 5.16111C16.966 6.25368 17.437 7.60634 17.4376 9ZM12.5396 11.977L11.2501 13.2673V9C11.2501 8.85081 11.1908 8.70774 11.0853 8.60225C10.9798 8.49676 10.8367 8.4375 10.6876 8.4375C10.5384 8.4375 10.3953 8.49676 10.2898 8.60225C10.1843 8.70774 10.1251 8.85081 10.1251 9V13.2673L8.83553 11.977C8.72998 11.8715 8.58682 11.8122 8.43756 11.8122C8.28829 11.8122 8.14514 11.8715 8.03959 11.977C7.93404 12.0826 7.87474 12.2257 7.87474 12.375C7.87474 12.5243 7.93404 12.6674 8.03959 12.773L10.2896 15.023C10.3418 15.0753 10.4039 15.1168 10.4722 15.1451C10.5404 15.1734 10.6136 15.1879 10.6876 15.1879C10.7615 15.1879 10.8347 15.1734 10.903 15.1451C10.9712 15.1168 11.0333 15.0753 11.0855 15.023L13.3355 12.773C13.4411 12.6674 13.5004 12.5243 13.5004 12.375C13.5004 12.2257 13.4411 12.0826 13.3355 11.977C13.23 11.8715 13.0868 11.8122 12.9376 11.8122C12.7883 11.8122 12.6451 11.8715 12.5396 11.977Z" fill="white"/>
</svg>
