<svg width="19" height="18" viewBox="0 0 19 18" fill="none" xmlns="http://www.w3.org/2000/svg">
<path d="M16.25 3.375H2.75C2.45163 3.375 2.16548 3.49353 1.9545 3.7045C1.74353 3.91548 1.625 4.20163 1.625 4.5V13.5C1.625 13.7984 1.74353 14.0845 1.9545 14.2955C2.16548 14.5065 2.45163 14.625 2.75 14.625H16.25C16.5484 14.625 16.8345 14.5065 17.0455 14.2955C17.2565 14.0845 17.375 13.7984 17.375 13.5V4.5C17.375 4.20163 17.2565 3.91548 17.0455 3.7045C16.8345 3.49353 16.5484 3.375 16.25 3.375ZM16.25 4.5V6.1875H2.75V4.5H16.25ZM16.25 13.5H2.75V7.3125H16.25V13.5ZM15.125 11.8125C15.125 11.9617 15.0657 12.1048 14.9602 12.2102C14.8548 12.3157 14.7117 12.375 14.5625 12.375H12.3125C12.1633 12.375 12.0202 12.3157 11.9148 12.2102C11.8093 12.1048 11.75 11.9617 11.75 11.8125C11.75 11.6633 11.8093 11.5202 11.9148 11.4148C12.0202 11.3093 12.1633 11.25 12.3125 11.25H14.5625C14.7117 11.25 14.8548 11.3093 14.9602 11.4148C15.0657 11.5202 15.125 11.6633 15.125 11.8125ZM10.625 11.8125C10.625 11.9617 10.5657 12.1048 10.4602 12.2102C10.3548 12.3157 10.2117 12.375 10.0625 12.375H8.9375C8.78832 12.375 8.64524 12.3157 8.53975 12.2102C8.43426 12.1048 8.375 11.9617 8.375 11.8125C8.375 11.6633 8.43426 11.5202 8.53975 11.4148C8.64524 11.3093 8.78832 11.25 8.9375 11.25H10.0625C10.2117 11.25 10.3548 11.3093 10.4602 11.4148C10.5657 11.5202 10.625 11.6633 10.625 11.8125Z" fill="black"/>
</svg>
