<svg width="31" height="20" viewBox="0 0 31 20" fill="none" xmlns="http://www.w3.org/2000/svg">
<path d="M2 10V16C2 16.2652 1.89464 16.5196 1.70711 16.7071C1.51957 16.8946 1.26522 17 1 17C0.734784 17 0.48043 16.8946 0.292893 16.7071C0.105357 16.5196 0 16.2652 0 16V10C0 9.73478 0.105357 9.48043 0.292893 9.29289C0.48043 9.10536 0.734784 9 1 9C1.26522 9 1.51957 9.10536 1.70711 9.29289C1.89464 9.48043 2 9.73478 2 10ZM5 6C4.73478 6 4.48043 6.10536 4.29289 6.29289C4.10536 6.48043 4 6.73478 4 7V19C4 19.2652 4.10536 19.5196 4.29289 19.7071C4.48043 19.8946 4.73478 20 5 20C5.26522 20 5.51957 19.8946 5.70711 19.7071C5.89464 19.5196 6 19.2652 6 19V7C6 6.73478 5.89464 6.48043 5.70711 6.29289C5.51957 6.10536 5.26522 6 5 6ZM9 5C8.73478 5 8.48043 5.10536 8.29289 5.29289C8.10536 5.48043 8 5.73478 8 6V19C8 19.2652 8.10536 19.5196 8.29289 19.7071C8.48043 19.8946 8.73478 20 9 20C9.26522 20 9.51957 19.8946 9.70711 19.7071C9.89464 19.5196 10 19.2652 10 19V6C10 5.73478 9.89464 5.48043 9.70711 5.29289C9.51957 5.10536 9.26522 5 9 5ZM13 1C12.7348 1 12.4804 1.10536 12.2929 1.29289C12.1054 1.48043 12 1.73478 12 2V19C12 19.2652 12.1054 19.5196 12.2929 19.7071C12.4804 19.8946 12.7348 20 13 20C13.2652 20 13.5196 19.8946 13.7071 19.7071C13.8946 19.5196 14 19.2652 14 19V2C14 1.73478 13.8946 1.48043 13.7071 1.29289C13.5196 1.10536 13.2652 1 13 1ZM26.855 8.2925C26.4526 5.9707 25.2433 3.86557 23.4403 2.34842C21.6373 0.83127 19.3564 -0.000437204 17 1.72417e-07C16.7348 1.72417e-07 16.4804 0.105357 16.2929 0.292894C16.1054 0.48043 16 0.734784 16 1C16 1.26522 16.1054 1.51957 16.2929 1.70711C16.4804 1.89464 16.7348 2 17 2C18.9838 1.993 20.8989 2.72609 22.371 4.05597C23.843 5.38586 24.7662 7.21693 24.96 9.19125C24.9829 9.40404 25.0734 9.60388 25.2183 9.76138C25.3632 9.91888 25.5548 10.0257 25.765 10.0662C26.75 10.2475 27.6311 10.7916 28.2343 11.5911C28.8375 12.3906 29.1188 13.3872 29.0227 14.3841C28.9266 15.381 28.46 16.3056 27.7152 16.9751C26.9703 17.6446 26.0014 18.0103 25 18H17C16.7348 18 16.4804 18.1054 16.2929 18.2929C16.1054 18.4804 16 18.7348 16 19C16 19.2652 16.1054 19.5196 16.2929 19.7071C16.4804 19.8946 16.7348 20 17 20H25C26.4293 20.0011 27.8121 19.4918 28.8993 18.564C29.9866 17.6362 30.7069 16.3507 30.9306 14.939C31.1542 13.5272 30.8666 12.082 30.1194 10.8636C29.3723 9.64507 28.2146 8.73333 26.855 8.2925Z" fill="#0099FF"/>
</svg>
